<?xml version="1.0" encoding="UTF-8"?>
<svg id="Layer_1" xmlns="http://www.w3.org/2000/svg" xmlns:xlink="http://www.w3.org/1999/xlink" version="1.1" viewBox="0 0 256 256">
  <!-- Generator: Adobe Illustrator 29.1.0, SVG Export Plug-In . SVG Version: 2.1.0 Build 142)  -->
  <defs>
    <style>
      .st0 {
        fill: none;
        stroke: url(#linear-gradient);
        stroke-linecap: round;
        stroke-linejoin: round;
        stroke-width: 7.6px;
      }
    </style>
    <linearGradient id="linear-gradient" x1="41.1" y1="128" x2="230.8" y2="128" gradientUnits="userSpaceOnUse">
      <stop offset="0" stop-color="#18d8ff"/>
      <stop offset="1" stop-color="#f04bd8"/>
    </linearGradient>
  </defs>
  <path class="st0" d="M126.4,63.8c4.3-.6,7.4-4.6,6.8-9-1.3-8.9.2-22.4,21-23.4,26.2-1.3,19.5,21.7,16.8,28.9-.5,1.4-1.4,2.6-2.6,3.5l-1.7,1.4c-4.7,3.6-3.9,11,1.5,13.5l13.5,6.4c2.3,1.1,4.9,1,7.1-.1l26.6-13.9c2.9-1.5,6.4-1.1,8.9,1h0c3.8,3.3,3.6,9.2-.3,12.3l-30.5,24.1c-1.4,1.1-3.2,1.7-5,1.7h-23c-2.4,0-4.7,1.1-6.2,2.9l-10.3,12.7c-2.3,2.9-2.4,6.9-.2,9.9l7.8,10.2c.4.5.8.9,1.3,1.3l12.4,10.2c2.6,2.2,3.6,5.8,2.4,8.9l-14.1,37.9c-.4,1-.5,2.1-.5,3.1l.3,6.7c.2,4.5-3.4,8.3-8,8.3h-2.1c-2.5,0-4.9-1.2-6.4-3.2l-6.5-8.6c-1.6-2.1-2-4.8-1.2-7.3l7.9-23.4c1.3-3.8-.5-8-4.1-9.7l-19.5-9.3c-3.5-1.6-7.6-.6-9.9,2.5l-42.6,57.8c-2.5,3.3-7.1,4.2-10.6,2.1l-6.7-4.1c-3.8-2.3-4.9-7.2-2.6-11l34.5-55.7c.5-.8.9-1.7,1-2.6l5.6-27.9c.1-.7.4-1.4.7-2l4.7-9.4c2.8-5.5-1.5-11.9-7.6-11.5l-18.5,1.2c-2.5.2-5-.9-6.6-2.9l-5.7-6.8c-1.9-2.3-2.4-5.5-1.2-8.2l13.6-31.9c.7-1.7,2.1-3.2,3.8-4l4-2c4.2-2.1,9.2-.2,11,4.2l.3.8c.7,1.6.7,3.5.3,5.2l-1.5,5.3c-1.7,5.9,3.6,11.4,9.6,9.9l13.5-3.4c.3,0,.6-.1.8-.2l18.1-2.5Z"/>
</svg>