<svg xmlns="http://www.w3.org/2000/svg" width="256" height="256" viewBox="0 0 256 256">
  <defs>
    <linearGradient id="neon" x1="0" y1="0" x2="256" y2="256" gradientUnits="userSpaceOnUse">
      <stop offset="0" stop-color="#18d8ff"/>
      <stop offset="1" stop-color="#f04bd8"/>
    </linearGradient>
    <filter id="glow" x="-40%" y="-40%" width="180%" height="180%">
      <feGaussianBlur stdDeviation="4" result="blur"/>
      <feMerge><feMergeNode in="blur"/><feMergeNode in="SourceGraphic"/></feMerge>
    </filter>
    <style>
      .stroke{fill:none;stroke:url(#neon);stroke-width:10;stroke-linecap:round;stroke-linejoin:round;filter:url(#glow)}
      .thin{fill:none;stroke:url(#neon);stroke-width:7;stroke-linecap:round;stroke-linejoin:round;filter:url(#glow)}
      .fill{fill:url(#neon);filter:url(#glow)}
    </style>
  </defs>
  
  <circle class="thin" cx="128" cy="56" r="18"/>
  <circle class="thin" cx="78" cy="86" r="16"/>
  <circle class="thin" cx="178" cy="86" r="16"/>
  <path class="stroke" d="M96 190v-38c0-24 14-43 32-43s32 19 32 43v38"/>
  <path class="thin" d="M50 184v-34c0-20 12-36 28-36s28 16 28 36M150 150c0-20 12-36 28-36s28 16 28 36v34"/>
  <path class="thin" d="M42 196h172"/>

</svg>