<?xml version="1.0" encoding="UTF-8"?>
<svg id="Layer_1" xmlns="http://www.w3.org/2000/svg" version="1.1" viewBox="0 0 378 377">
  <!-- Generator: Adobe Illustrator 29.1.0, SVG Export Plug-In . SVG Version: 2.1.0 Build 142)  -->
  <defs>
    <style>
      .st0 {
        fill: #fff;
      }
    </style>
  </defs>
  <path class="st0" d="M43.9,1.1C21.8,5.7,3.6,22.9,1.3,46.1c-2.3,23.9,0,49.3,0,73.3v149.5c0,27.5-6.9,64.8,10.7,88,19.1,25,54,19.1,81.6,19.1h214c8.5,0,18.1,1.2,26.4-.5,22.1-4.6,40.3-21.8,42.5-45,2.3-23.9,0-49.2,0-73.3V107.6c0-27.5,6.9-64.8-10.8-88C346.8-5.3,311.9.6,284.3.6H70.2c-8.5,0-18.1-1.2-26.4.5M177.3,134l-10.3,27.8h17.6l-14.7,35.2,13.2,1.5c-1.4,3.9-3.4,11.3-6.3,14.4-2.2,2.3-5.5,1.7-8.3,1.7-6.4,0-19.3,2.7-22.7-4.4-1.6-3.2.7-7.3,1.9-10.3,2.7-6.2,6.2-12.5,7.6-19.1-3.2,0-7.2.6-10.3-.5-11.4-4.2,1.3-22.5,3.9-28.8,1.8-4.4,4-14.1,8.1-16.9,5.6-3.9,14.2-1.2,20.3-.7M61.4,226.4c4,0,10,1.2,12.5-2.9,2.6-4.4.7-14.1.7-19.1v-48.4c0-4.5-2.3-18.4,1.7-21.3,3.3-2.4,17.1-1.9,18.6,2.2,2.4,6.7.2,17.8.2,24.9v46.9c0,8,1.4,17.4-1.9,24.9-3.2,7.2-18,13.6-25.4,8.1-3.2-2.4-5.5-11.6-6.3-15.4M284.3,134v7.3c5.5,0,12.3-1.1,17.6.5,17.6,5.4,16.1,22.6,16.1,37.6,2.9,0,5.9-.2,8.8.5,16.9,4.2,14.7,21.1,14.7,34.7s1.4,15.9-3.4,22c-5.3,6.8-13.9,5.9-21.5,5.9s-6.2.8-8.3-.7c-3.9-2.8-5.5-11-6.4-15.4,4.8,0,13.5,1.6,17.4-2,4.5-4.2,2.7-20.9-2.7-23.7-2.8-1.5-7.2-.7-10.3-.7h-22v42.5h-20.5v-42.5h-20.5v-20.5h20.5v-17.6h-13.2v-20.5h13.2v-7.3h20.5M237.4,141.4v20.5h-11.7v61.6h19.1v19.1h-67.4l7.8-18.3,18.6-.7v-61.6h-11.7v-20.5h45.4M320.9,161.9c0-4.2-.8-9.2.5-13.2,4.9-15.8,28.8-3.1,16.9,10-1.3,1.5-3.7,2.2-5.6,2.7-3.8.9-7.9.5-11.7.5M61.4,161.9l-6.1,54.2-10,17.6-8.8-23.5,4.4-48.4h20.5M128.9,161.9l4.4,48.4-8.8,22h-2.9c-7.9-12.5-8.9-25.3-10.3-39.6-1-10.1-2.9-20.6-2.9-30.8h20.5M284.3,161.9v17.6h13.2v-17.6h-13.2ZM174.3,223.4l-7.3,19.1h-32.2l7.8-19.8,11.2.2,20.5.5Z"/>
</svg>